<svg width="1505" height="327" viewBox="0 0 1505 327" fill="none" xmlns="http://www.w3.org/2000/svg">
<path d="M841.827 7H1497C1497.55 7 1498 7.44773 1498 8V252C1498 252.552 1497.55 253 1497 253H713.258C712.505 253 712.022 252.2 712.373 251.534L840.943 7.53384C841.116 7.20551 841.456 7 841.827 7Z" stroke="black" stroke-width="14"/>
<path d="M670.25 255.729C668.866 258.356 666.142 260 663.173 260H334H295.718C293.506 260 291.392 260.916 289.879 262.531L238.909 316.954C234.713 321.434 227.244 319.715 225.428 313.852L210.495 265.633C209.457 262.284 206.359 260 202.853 260H167H8C3.58172 260 0 256.418 0 252V8C0 3.58172 3.58172 0 8 0H791.742C797.764 0 801.627 6.40191 798.82 11.7293L670.25 255.729Z" fill="black"/>
<path d="M91.5 175.26C85.4333 175.26 79.9733 174.187 75.12 172.04C70.36 169.8 66.58 166.813 63.78 163.08C60.98 159.253 59.4867 155.007 59.3 150.34H75.82C76.1 153.607 77.64 156.36 80.44 158.6C83.3333 160.747 86.9267 161.82 91.22 161.82C95.7 161.82 99.1533 160.98 101.58 159.3C104.1 157.527 105.36 155.287 105.36 152.58C105.36 149.687 103.96 147.54 101.16 146.14C98.4533 144.74 94.1133 143.2 88.14 141.52C82.3533 139.933 77.64 138.393 74 136.9C70.36 135.407 67.1867 133.12 64.48 130.04C61.8667 126.96 60.56 122.9 60.56 117.86C60.56 113.753 61.7733 110.02 64.2 106.66C66.6267 103.207 70.08 100.5 74.56 98.54C79.1333 96.58 84.36 95.6 90.24 95.6C99.0133 95.6 106.06 97.84 111.38 102.32C116.793 106.707 119.687 112.727 120.06 120.38H104.1C103.82 116.927 102.42 114.173 99.9 112.12C97.38 110.067 93.9733 109.04 89.68 109.04C85.48 109.04 82.26 109.833 80.02 111.42C77.78 113.007 76.66 115.107 76.66 117.72C76.66 119.773 77.4067 121.5 78.9 122.9C80.3933 124.3 82.2133 125.42 84.36 126.26C86.5067 127.007 89.68 127.987 93.88 129.2C99.48 130.693 104.053 132.233 107.6 133.82C111.24 135.313 114.367 137.553 116.98 140.54C119.593 143.527 120.947 147.493 121.04 152.44C121.04 156.827 119.827 160.747 117.4 164.2C114.973 167.653 111.52 170.36 107.04 172.32C102.653 174.28 97.4733 175.26 91.5 175.26ZM171.745 175.26C164.465 175.26 157.885 173.627 152.005 170.36C146.125 167 141.505 162.333 138.145 156.36C134.785 150.293 133.105 143.293 133.105 135.36C133.105 127.52 134.832 120.567 138.285 114.5C141.738 108.433 146.452 103.767 152.425 100.5C158.398 97.2333 165.072 95.6 172.445 95.6C179.818 95.6 186.492 97.2333 192.465 100.5C198.438 103.767 203.152 108.433 206.605 114.5C210.058 120.567 211.785 127.52 211.785 135.36C211.785 143.2 210.012 150.153 206.465 156.22C202.918 162.287 198.065 167 191.905 170.36C185.838 173.627 179.118 175.26 171.745 175.26ZM171.745 161.4C175.852 161.4 179.678 160.42 183.225 158.46C186.865 156.5 189.805 153.56 192.045 149.64C194.285 145.72 195.405 140.96 195.405 135.36C195.405 129.76 194.332 125.047 192.185 121.22C190.038 117.3 187.192 114.36 183.645 112.4C180.098 110.44 176.272 109.46 172.165 109.46C168.058 109.46 164.232 110.44 160.685 112.4C157.232 114.36 154.478 117.3 152.425 121.22C150.372 125.047 149.345 129.76 149.345 135.36C149.345 143.667 151.445 150.107 155.645 154.68C159.938 159.16 165.305 161.4 171.745 161.4ZM222.243 135.08C222.243 127.333 223.829 120.473 227.003 114.5C230.269 108.527 234.656 103.907 240.163 100.64C245.763 97.28 251.923 95.6 258.643 95.6C264.709 95.6 269.983 96.8133 274.463 99.24C279.036 101.573 282.676 104.513 285.383 108.06V96.86H301.483V174H285.383V162.52C282.676 166.16 278.989 169.193 274.323 171.62C269.656 174.047 264.336 175.26 258.363 175.26C251.736 175.26 245.669 173.58 240.163 170.22C234.656 166.767 230.269 162.007 227.003 155.94C223.829 149.78 222.243 142.827 222.243 135.08ZM285.383 135.36C285.383 130.04 284.263 125.42 282.023 121.5C279.876 117.58 277.029 114.593 273.483 112.54C269.936 110.487 266.109 109.46 262.003 109.46C257.896 109.46 254.069 110.487 250.523 112.54C246.976 114.5 244.083 117.44 241.843 121.36C239.696 125.187 238.623 129.76 238.623 135.08C238.623 140.4 239.696 145.067 241.843 149.08C244.083 153.093 246.976 156.173 250.523 158.32C254.163 160.373 257.989 161.4 262.003 161.4C266.109 161.4 269.936 160.373 273.483 158.32C277.029 156.267 279.876 153.28 282.023 149.36C284.263 145.347 285.383 140.68 285.383 135.36ZM338.405 108.2C341.112 104.653 344.799 101.667 349.465 99.24C354.132 96.8133 359.405 95.6 365.285 95.6C372.005 95.6 378.119 97.28 383.625 100.64C389.225 103.907 393.612 108.527 396.785 114.5C399.959 120.473 401.545 127.333 401.545 135.08C401.545 142.827 399.959 149.78 396.785 155.94C393.612 162.007 389.225 166.767 383.625 170.22C378.119 173.58 372.005 175.26 365.285 175.26C359.405 175.26 354.179 174.093 349.605 171.76C345.032 169.333 341.299 166.347 338.405 162.8V210.68H322.445V96.86H338.405V108.2ZM385.305 135.08C385.305 129.76 384.185 125.187 381.945 121.36C379.799 117.44 376.905 114.5 373.265 112.54C369.719 110.487 365.892 109.46 361.785 109.46C357.772 109.46 353.945 110.487 350.305 112.54C346.759 114.593 343.865 117.58 341.625 121.5C339.479 125.42 338.405 130.04 338.405 135.36C338.405 140.68 339.479 145.347 341.625 149.36C343.865 153.28 346.759 156.267 350.305 158.32C353.945 160.373 357.772 161.4 361.785 161.4C365.892 161.4 369.719 160.373 373.265 158.32C376.905 156.173 379.799 153.093 381.945 149.08C384.185 145.067 385.305 140.4 385.305 135.08ZM433.288 108.34C435.995 104.607 439.681 101.573 444.348 99.24C449.108 96.8133 454.381 95.6 460.168 95.6C466.981 95.6 473.141 97.2333 478.648 100.5C484.155 103.767 488.495 108.433 491.668 114.5C494.841 120.473 496.428 127.333 496.428 135.08C496.428 142.827 494.841 149.78 491.668 155.94C488.495 162.007 484.108 166.767 478.508 170.22C473.001 173.58 466.888 175.26 460.168 175.26C454.195 175.26 448.875 174.093 444.208 171.76C439.635 169.427 435.995 166.44 433.288 162.8V174H417.328V70.4H433.288V108.34ZM480.188 135.08C480.188 129.76 479.068 125.187 476.828 121.36C474.681 117.44 471.788 114.5 468.148 112.54C464.601 110.487 460.775 109.46 456.668 109.46C452.655 109.46 448.828 110.487 445.188 112.54C441.641 114.593 438.748 117.58 436.508 121.5C434.361 125.42 433.288 130.04 433.288 135.36C433.288 140.68 434.361 145.347 436.508 149.36C438.748 153.28 441.641 156.267 445.188 158.32C448.828 160.373 452.655 161.4 456.668 161.4C460.775 161.4 464.601 160.373 468.148 158.32C471.788 156.173 474.681 153.093 476.828 149.08C479.068 145.067 480.188 140.4 480.188 135.08ZM545.671 175.26C538.391 175.26 531.811 173.627 525.931 170.36C520.051 167 515.431 162.333 512.071 156.36C508.711 150.293 507.031 143.293 507.031 135.36C507.031 127.52 508.758 120.567 512.211 114.5C515.664 108.433 520.378 103.767 526.351 100.5C532.324 97.2333 538.998 95.6 546.371 95.6C553.744 95.6 560.418 97.2333 566.391 100.5C572.364 103.767 577.078 108.433 580.531 114.5C583.984 120.567 585.711 127.52 585.711 135.36C585.711 143.2 583.938 150.153 580.391 156.22C576.844 162.287 571.991 167 565.831 170.36C559.764 173.627 553.044 175.26 545.671 175.26ZM545.671 161.4C549.778 161.4 553.604 160.42 557.151 158.46C560.791 156.5 563.731 153.56 565.971 149.64C568.211 145.72 569.331 140.96 569.331 135.36C569.331 129.76 568.258 125.047 566.111 121.22C563.964 117.3 561.118 114.36 557.571 112.4C554.024 110.44 550.198 109.46 546.091 109.46C541.984 109.46 538.158 110.44 534.611 112.4C531.158 114.36 528.404 117.3 526.351 121.22C524.298 125.047 523.271 129.76 523.271 135.36C523.271 143.667 525.371 150.107 529.571 154.68C533.864 159.16 539.231 161.4 545.671 161.4ZM634.528 134.94L659.448 174H641.388L624.728 147.82L609.048 174H592.388L617.308 136.06L592.388 96.86H610.448L627.108 123.04L642.788 96.86H659.448L634.528 134.94Z" fill="white"/>
<path d="M847.868 135.08C847.868 127.333 849.454 120.473 852.628 114.5C855.894 108.527 860.281 103.907 865.788 100.64C871.388 97.28 877.594 95.6 884.408 95.6C889.448 95.6 894.394 96.72 899.248 98.96C904.194 101.107 908.114 104 911.008 107.64V70.4H927.108V174H911.008V162.38C908.394 166.113 904.754 169.193 900.088 171.62C895.514 174.047 890.241 175.26 884.268 175.26C877.548 175.26 871.388 173.58 865.788 170.22C860.281 166.767 855.894 162.007 852.628 155.94C849.454 149.78 847.868 142.827 847.868 135.08ZM911.008 135.36C911.008 130.04 909.888 125.42 907.648 121.5C905.501 117.58 902.654 114.593 899.108 112.54C895.561 110.487 891.734 109.46 887.628 109.46C883.521 109.46 879.694 110.487 876.148 112.54C872.601 114.5 869.708 117.44 867.468 121.36C865.321 125.187 864.248 129.76 864.248 135.08C864.248 140.4 865.321 145.067 867.468 149.08C869.708 153.093 872.601 156.173 876.148 158.32C879.788 160.373 883.614 161.4 887.628 161.4C891.734 161.4 895.561 160.373 899.108 158.32C902.654 156.267 905.501 153.28 907.648 149.36C909.888 145.347 911.008 140.68 911.008 135.36ZM1018.77 133.54C1018.77 136.433 1018.58 139.047 1018.21 141.38H959.27C959.737 147.54 962.024 152.487 966.13 156.22C970.237 159.953 975.277 161.82 981.25 161.82C989.837 161.82 995.904 158.227 999.45 151.04H1016.67C1014.34 158.133 1010.09 163.967 1003.93 168.54C997.864 173.02 990.304 175.26 981.25 175.26C973.877 175.26 967.25 173.627 961.37 170.36C955.584 167 951.01 162.333 947.65 156.36C944.384 150.293 942.75 143.293 942.75 135.36C942.75 127.427 944.337 120.473 947.51 114.5C950.777 108.433 955.304 103.767 961.09 100.5C966.97 97.2333 973.69 95.6 981.25 95.6C988.53 95.6 995.017 97.1867 1000.71 100.36C1006.4 103.533 1010.84 108.013 1014.01 113.8C1017.18 119.493 1018.77 126.073 1018.77 133.54ZM1002.11 128.5C1002.02 122.62 999.917 117.907 995.81 114.36C991.704 110.813 986.617 109.04 980.55 109.04C975.044 109.04 970.33 110.813 966.41 114.36C962.49 117.813 960.157 122.527 959.41 128.5H1002.11ZM1050.44 108.34C1053.14 104.607 1056.83 101.573 1061.5 99.24C1066.26 96.8133 1071.53 95.6 1077.32 95.6C1084.13 95.6 1090.29 97.2333 1095.8 100.5C1101.3 103.767 1105.64 108.433 1108.82 114.5C1111.99 120.473 1113.58 127.333 1113.58 135.08C1113.58 142.827 1111.99 149.78 1108.82 155.94C1105.64 162.007 1101.26 166.767 1095.66 170.22C1090.15 173.58 1084.04 175.26 1077.32 175.26C1071.34 175.26 1066.02 174.093 1061.36 171.76C1056.78 169.427 1053.14 166.44 1050.44 162.8V174H1034.48V70.4H1050.44V108.34ZM1097.34 135.08C1097.34 129.76 1096.22 125.187 1093.98 121.36C1091.83 117.44 1088.94 114.5 1085.3 112.54C1081.75 110.487 1077.92 109.46 1073.82 109.46C1069.8 109.46 1065.98 110.487 1062.34 112.54C1058.79 114.593 1055.9 117.58 1053.66 121.5C1051.51 125.42 1050.44 130.04 1050.44 135.36C1050.44 140.68 1051.51 145.347 1053.66 149.36C1055.9 153.28 1058.79 156.267 1062.34 158.32C1065.98 160.373 1069.8 161.4 1073.82 161.4C1077.92 161.4 1081.75 160.373 1085.3 158.32C1088.94 156.173 1091.83 153.093 1093.98 149.08C1096.22 145.067 1097.34 140.4 1097.34 135.08ZM1124.04 135.08C1124.04 127.333 1125.63 120.473 1128.8 114.5C1132.07 108.527 1136.45 103.907 1141.96 100.64C1147.56 97.28 1153.72 95.6 1160.44 95.6C1166.51 95.6 1171.78 96.8133 1176.26 99.24C1180.83 101.573 1184.47 104.513 1187.18 108.06V96.86H1203.28V174H1187.18V162.52C1184.47 166.16 1180.79 169.193 1176.12 171.62C1171.45 174.047 1166.13 175.26 1160.16 175.26C1153.53 175.26 1147.47 173.58 1141.96 170.22C1136.45 166.767 1132.07 162.007 1128.8 155.94C1125.63 149.78 1124.04 142.827 1124.04 135.08ZM1187.18 135.36C1187.18 130.04 1186.06 125.42 1183.82 121.5C1181.67 117.58 1178.83 114.593 1175.28 112.54C1171.73 110.487 1167.91 109.46 1163.8 109.46C1159.69 109.46 1155.87 110.487 1152.32 112.54C1148.77 114.5 1145.88 117.44 1143.64 121.36C1141.49 125.187 1140.42 129.76 1140.42 135.08C1140.42 140.4 1141.49 145.067 1143.64 149.08C1145.88 153.093 1148.77 156.173 1152.32 158.32C1155.96 160.373 1159.79 161.4 1163.8 161.4C1167.91 161.4 1171.73 160.373 1175.28 158.32C1178.83 156.267 1181.67 153.28 1183.82 149.36C1186.06 145.347 1187.18 140.68 1187.18 135.36ZM1242.86 109.88V152.58C1242.86 155.473 1243.52 157.573 1244.82 158.88C1246.22 160.093 1248.56 160.7 1251.82 160.7H1261.62V174H1249.02C1241.84 174 1236.33 172.32 1232.5 168.96C1228.68 165.6 1226.76 160.14 1226.76 152.58V109.88H1217.66V96.86H1226.76V77.68H1242.86V96.86H1261.62V109.88H1242.86ZM1347.03 133.54C1347.03 136.433 1346.85 139.047 1346.47 141.38H1287.53C1288 147.54 1290.29 152.487 1294.39 156.22C1298.5 159.953 1303.54 161.82 1309.51 161.82C1318.1 161.82 1324.17 158.227 1327.71 151.04H1344.93C1342.6 158.133 1338.35 163.967 1332.19 168.54C1326.13 173.02 1318.57 175.26 1309.51 175.26C1302.14 175.26 1295.51 173.627 1289.63 170.36C1283.85 167 1279.27 162.333 1275.91 156.36C1272.65 150.293 1271.01 143.293 1271.01 135.36C1271.01 127.427 1272.6 120.473 1275.77 114.5C1279.04 108.433 1283.57 103.767 1289.35 100.5C1295.23 97.2333 1301.95 95.6 1309.51 95.6C1316.79 95.6 1323.28 97.1867 1328.97 100.36C1334.67 103.533 1339.1 108.013 1342.27 113.8C1345.45 119.493 1347.03 126.073 1347.03 133.54ZM1330.37 128.5C1330.28 122.62 1328.18 117.907 1324.07 114.36C1319.97 110.813 1314.88 109.04 1308.81 109.04C1303.31 109.04 1298.59 110.813 1294.67 114.36C1290.75 117.813 1288.42 122.527 1287.67 128.5H1330.37ZM1390.74 175.26C1384.67 175.26 1379.21 174.187 1374.36 172.04C1369.6 169.8 1365.82 166.813 1363.02 163.08C1360.22 159.253 1358.72 155.007 1358.54 150.34H1375.06C1375.34 153.607 1376.88 156.36 1379.68 158.6C1382.57 160.747 1386.16 161.82 1390.46 161.82C1394.94 161.82 1398.39 160.98 1400.82 159.3C1403.34 157.527 1404.6 155.287 1404.6 152.58C1404.6 149.687 1403.2 147.54 1400.4 146.14C1397.69 144.74 1393.35 143.2 1387.38 141.52C1381.59 139.933 1376.88 138.393 1373.24 136.9C1369.6 135.407 1366.42 133.12 1363.72 130.04C1361.1 126.96 1359.8 122.9 1359.8 117.86C1359.8 113.753 1361.01 110.02 1363.44 106.66C1365.86 103.207 1369.32 100.5 1373.8 98.54C1378.37 96.58 1383.6 95.6 1389.48 95.6C1398.25 95.6 1405.3 97.84 1410.62 102.32C1416.03 106.707 1418.92 112.727 1419.3 120.38H1403.34C1403.06 116.927 1401.66 114.173 1399.14 112.12C1396.62 110.067 1393.21 109.04 1388.92 109.04C1384.72 109.04 1381.5 109.833 1379.26 111.42C1377.02 113.007 1375.9 115.107 1375.9 117.72C1375.9 119.773 1376.64 121.5 1378.14 122.9C1379.63 124.3 1381.45 125.42 1383.6 126.26C1385.74 127.007 1388.92 127.987 1393.12 129.2C1398.72 130.693 1403.29 132.233 1406.84 133.82C1410.48 135.313 1413.6 137.553 1416.22 140.54C1418.83 143.527 1420.18 147.493 1420.28 152.44C1420.28 156.827 1419.06 160.747 1416.64 164.2C1414.21 167.653 1410.76 170.36 1406.28 172.32C1401.89 174.28 1396.71 175.26 1390.74 175.26Z" fill="black"/>
</svg>
